<?xml version="1.0" encoding="utf-8"?>
<!-- Generator: Adobe Illustrator 26.0.2, SVG Export Plug-In . SVG Version: 6.00 Build 0)  -->
<svg version="1.1"
	 id="svg2" xmlns:cc="http://creativecommons.org/ns#" xmlns:dc="http://purl.org/dc/elements/1.1/" xmlns:inkscape="http://www.inkscape.org/namespaces/inkscape" xmlns:rdf="http://www.w3.org/1999/02/22-rdf-syntax-ns#" xmlns:sodipodi="http://sodipodi.sourceforge.net/DTD/sodipodi-0.dtd" xmlns:svg="http://www.w3.org/2000/svg"
	 xmlns="http://www.w3.org/2000/svg" xmlns:xlink="http://www.w3.org/1999/xlink" x="0px" y="0px" viewBox="0 0 866.7 77.3"
	 style="enable-background:new 0 0 866.7 77.3;" xml:space="preserve" width="866.66669"
   height="77.333336">
<style type="text/css">
	.st0{fill:#1B75BB;}
	.st1{fill:#FAAF40;}
	.st2{fill:#6D6E70;}
	.st3{fill-rule:evenodd;clip-rule:evenodd;fill:#004A93;}
</style>
<sodipodi:namedview  bordercolor="#666666" borderopacity="1" gridtolerance="10" guidetolerance="10" id="namedview4" inkscape:pageopacity="0" inkscape:pageshadow="2" inkscape:window-height="480" inkscape:window-width="640" objecttolerance="10" pagecolor="#ffffff">
	</sodipodi:namedview>
<g id="g14">
	<g>
		<path id="path668" class="st0" d="M550,22h-3.2v-3.2h3.2V22z"/>
		<path id="path670" class="st0" d="M555.4,18.3H551v-4.4h4.4V18.3z"/>
		<g id="g672" transform="translate(395.9111,12.3301)">
			<path id="path674" class="st0" d="M136.3,46.6L136.3,46.6L136.3,46.6C136.3,46.6,136.3,46.6,136.3,46.6L136.3,46.6z"/>
		</g>
		<g id="g676" transform="translate(395.9111,5.8994)">
			<path id="path678" class="st0" d="M136.3,61.2L136.3,61.2c0.1,0,0.1,0,0.1,0l-0.3,0H136.3z"/>
		</g>
		<g id="g680" transform="translate(397.7705,7.7266)">
			<path id="path682" class="st0" d="M136.8,57.1v-3.8c0,0-0.3-2-2.6-2.1l-20,0.2h-10.5c-3.7,0-6.4-0.6-8.1-1.7
				c-1.7-1.1-2.5-2.5-2.5-4V19.9c0-1.6,0.8-3,2.5-4.1c1.7-1.1,4.4-1.6,8.1-1.6l9.4,0c2-4.9,7.4-7.7,17.5-8l-27.1,0.1
				c-12.5,0-18.7,4.5-18.7,13.6v25.8c0,9.1,6.2,13.6,18.7,13.6h10.8l20,0.1C135.4,59.4,136.8,58,136.8,57.1"/>
		</g>
		<g id="g684" transform="translate(408.7598,30.3398)">
			<path id="path686" class="st1" d="M139.7,5.8h-17.3c-4.3,0-7.3-0.6-9.1-1.7c-1.8-1.1-2.7-2.5-2.7-4v-2.9c0-1.6,0.9-3,2.7-4.1
				c1.8-1.1,3-1.5,9-1.5h7.6c1.2,0,2-0.5,2.3-1.2c0.4-0.7,0.5-1.6,0.5-3c0-1.3-0.2-2.3-0.5-3c-0.4-0.7-1.1-1-2.3-1h-7.2
				c-1.1,0-2.2,0-3.3,0c-10.1,0.3-15.4,3.1-17.5,8c-0.7,1.6-1,3.5-1,5.6v2.9c0,9.1,7.2,13.6,21.6,13.6h17.3c4.3,0,7.3,0.6,9.1,1.7
				c1.8,1.1,2.7,2.5,2.7,4V23c0,1.6-0.9,3-2.7,4.1c-1.8,1.1-4.8,1.6-9.1,1.6l-16.4-0.1l-0.2,0l-0.1,0c0,0,0,0,0,0
				c2.3,0.1,2.6,2.1,2.6,2.1v3.8c0,0.9-1.3,2.3-2.6,2.3h0h0l0.3,0l16.1-0.2c14.6,0,21.8-4.5,21.8-13.6v-3.7
				C161.3,10.3,154.1,5.8,139.7,5.8"/>
		</g>
		<g id="g688" transform="translate(443.4785,22.915)">
			<path id="path690" class="st0" d="M149,22.6c-1.1,0.2-2.2,0.3-3.3,0.3c-3.3,0-5-1.1-5-3.2v-5.6c0-2.3,1.7-3.4,5-3.4
				c1.1,0,2.2,0.1,3.3,0.3v1.3c-1.2-0.3-2.2-0.4-3.2-0.4c-0.5,0-0.9,0-1.2,0.1c-0.4,0.1-0.7,0.2-1,0.3c-0.3,0.1-0.6,0.4-0.8,0.7
				c-0.2,0.3-0.3,0.7-0.3,1.1v5.6c0,1.4,1.1,2,3.4,2c1,0,2-0.1,3.2-0.4V22.6z"/>
		</g>
		<g id="g692" transform="translate(451.6104,25.1934)">
			<path id="path694" class="st0" d="M151.2,17.4v-5.7c0-1.5-1.1-2.2-3.3-2.2c-0.5,0-0.9,0-1.2,0.1c-0.4,0.1-0.7,0.2-1,0.3
				c-0.3,0.2-0.6,0.4-0.8,0.7c-0.2,0.3-0.3,0.7-0.3,1.1v5.7c0,1.4,1.1,2,3.3,2C150.1,19.5,151.2,18.8,151.2,17.4 M152.9,11.8v5.6
				c0,0.6-0.2,1.2-0.5,1.6c-0.3,0.5-0.7,0.8-1.3,1c-0.5,0.2-1.1,0.4-1.6,0.4c-0.5,0.1-1.1,0.1-1.7,0.1c-3.3,0-5-1.1-5-3.2v-5.6
				c0-2.3,1.7-3.4,5-3.4C151.3,8.4,152.9,9.6,152.9,11.8"/>
		</g>
		<g id="g696" transform="translate(465.1201,22.7852)">
			<path id="path698" class="st0" d="M154.9,22.9h-1.6v-10h-0.1l-3.8,10h-1.6l-3.9-10h-0.1v10h-1.6V11h2.7l3.8,9.9l0.1,0l3.6-9.9
				h2.6V22.9z"/>
		</g>
		<g id="g700" transform="translate(472.5312,28.4229)">
			<path id="path702" class="st0" d="M156.9,10.1V8c0-0.3-0.1-0.6-0.3-0.8c-0.2-0.2-0.4-0.4-0.7-0.4c-0.3-0.1-0.6-0.1-0.8-0.2
				c-0.2,0-0.5,0-0.8,0h-2v5.4h2c0.7,0,1.3-0.1,1.8-0.4C156.6,11.2,156.9,10.8,156.9,10.1 M158.6,7.7v2.5c0,1-0.4,1.7-1.2,2.2
				c-0.8,0.4-1.9,0.6-3.3,0.6h-1.8v4.3h-1.8V5.4h3.9c0.5,0,0.9,0,1.3,0c0.4,0,0.7,0.1,1.1,0.2c0.4,0.1,0.7,0.2,1,0.4
				c0.2,0.2,0.4,0.4,0.6,0.7C158.5,7,158.6,7.3,158.6,7.7"/>
		</g>
		<g id="g704" transform="translate(483.0703,32.1426)">
			<path id="path706" class="st0" d="M159.7,1.7v8.8c0,2.1-1.5,3.2-4.6,3.2c-0.6,0-1.2,0-1.7-0.1c-0.5-0.1-1-0.2-1.4-0.4
				c-0.5-0.2-0.8-0.5-1.1-1c-0.3-0.5-0.4-1-0.4-1.7V1.7h1.7v8.8c0,0.8,0.3,1.3,0.8,1.6c0.5,0.3,1.3,0.4,2.2,0.4
				c0.9,0,1.6-0.1,2.2-0.4c0.5-0.3,0.8-0.8,0.8-1.6V1.7H159.7z"/>
		</g>
		<g id="g708" transform="translate(492.3848,31.1621)">
			<path id="path710" class="st0" d="M162.2,3.9h-4v10.6h-1.8V3.9h-4V2.7h9.8V3.9z"/>
		</g>
		<g id="g712" transform="translate(500.3721,22.7852)">
			<path id="path714" class="st0" d="M164.3,22.9h-8.2V11h8v1.2H158v3.9h5.6v1.2H158v4.3h6.4V22.9z"/>
		</g>
		<g id="g716" transform="translate(507.4805,28.8701)">
			<path id="path718" class="st0" d="M166.3,9.1V7.5c0-0.9-0.8-1.3-2.3-1.3h-2.5v4.5h2.3c0.8,0,1.5-0.1,1.9-0.3
				C166,10.1,166.3,9.7,166.3,9.1 M168.8,16.8h-2.2l-3.4-5.1h-1.7v5.1h-1.8V4.9h4.2c1.5,0,2.6,0.1,3.2,0.4c0.6,0.3,1,0.9,1,1.9v2
				c0,0.7-0.3,1.3-0.9,1.7c-0.6,0.4-1.3,0.6-2.2,0.6L168.8,16.8z"/>
		</g>
		<g id="g720" transform="translate(520.6436,25.957)">
			<path id="path722" class="st0" d="M169.8,15.7v0.9c0,1.3-0.4,2.1-1.1,2.6c-0.7,0.5-1.8,0.7-3.4,0.7c-1,0-2.2-0.1-3.6-0.3v-1.5
				c1.4,0.3,2.7,0.5,3.7,0.5c0.8,0,1.5-0.1,1.9-0.3c0.4-0.2,0.7-0.6,0.7-1.1v-1.5c0-0.5-0.1-0.9-0.4-1.1c-0.3-0.2-0.8-0.3-1.5-0.3
				h-1.4c-1.2,0-2-0.2-2.5-0.7c-0.5-0.5-0.7-1.2-0.7-2.1v-1c0-0.9,0.3-1.6,1-2.1c0.7-0.5,1.9-0.7,3.7-0.7c0.9,0,1.9,0.1,3.1,0.2v1.3
				c-1.4-0.2-2.4-0.3-3.2-0.3c-1.1,0-1.9,0.1-2.3,0.3c-0.4,0.2-0.6,0.6-0.6,1.1v1.4c0,0.4,0.1,0.7,0.4,0.9c0.3,0.2,0.8,0.3,1.6,0.3
				h1.4c1.2,0,2.1,0.2,2.5,0.7C169.6,14,169.8,14.7,169.8,15.7"/>
		</g>
		<g id="g724" transform="translate(528.9199,22.915)">
			<path id="path726" class="st0" d="M172,22.6c-1.1,0.2-2.2,0.3-3.3,0.3c-3.3,0-5-1.1-5-3.2v-5.6c0-2.3,1.7-3.4,5-3.4
				c1.1,0,2.2,0.1,3.3,0.3v1.3c-1.2-0.3-2.2-0.4-3.2-0.4c-0.5,0-0.9,0-1.2,0.1c-0.4,0.1-0.7,0.2-1,0.3c-0.3,0.1-0.6,0.4-0.8,0.7
				c-0.2,0.3-0.3,0.7-0.3,1.1v5.6c0,1.4,1.1,2,3.4,2c1,0,2-0.1,3.2-0.4V22.6z"/>
		</g>
		<path id="path728" class="st0" d="M705.1,45.7h-1.8V33.8h1.8V45.7z"/>
		<g id="g730" transform="translate(541.0312,22.7852)">
			<path id="path732" class="st0" d="M175.3,22.9h-8.2V11h8v1.2h-6.2v3.9h5.6v1.2h-5.6v4.3h6.4V22.9z"/>
		</g>
		<g id="g734" transform="translate(550.9648,22.7852)">
			<path id="path736" class="st0" d="M177.9,22.9h-2.1l-6.5-10v10h-1.6V11h2.1l6.5,9.8V11h1.6V22.9z"/>
		</g>
		<g id="g738" transform="translate(559.6592,22.915)">
			<path id="path740" class="st0" d="M180.3,22.6c-1.1,0.2-2.2,0.3-3.3,0.3c-3.3,0-5-1.1-5-3.2v-5.6c0-2.3,1.7-3.4,5-3.4
				c1.1,0,2.2,0.1,3.3,0.3v1.3c-1.2-0.3-2.2-0.4-3.2-0.4c-0.5,0-0.9,0-1.2,0.1c-0.4,0.1-0.7,0.2-1,0.3c-0.3,0.1-0.6,0.4-0.8,0.7
				c-0.2,0.3-0.3,0.7-0.3,1.1v5.6c0,1.4,1.1,2,3.4,2c1,0,2-0.1,3.2-0.4V22.6z"/>
		</g>
		<g id="g742" transform="translate(567.9492,22.7852)">
			<path id="path744" class="st0" d="M182.5,22.9h-8.2V11h8v1.2h-6.2v3.9h5.6v1.2h-5.6v4.3h6.4V22.9z"/>
		</g>
		<g id="g746" transform="translate(442.791,40.7769)">
			<path id="path748" class="st2" d="M148.9-17.9v-4.5c0-0.4-0.1-0.7-0.2-1c-0.2-0.3-0.4-0.4-0.7-0.6c-0.3-0.1-0.6-0.2-0.9-0.3
				c-0.3,0-0.7-0.1-1.1-0.1h-2.5v8.1h2.4C147.9-16.2,148.9-16.7,148.9-17.9 M150.3-22.4v4.5c0,1.8-1.4,2.8-4.3,2.8H142v-10.2h4
				C148.9-25.3,150.3-24.3,150.3-22.4"/>
		</g>
		<g id="g750" transform="translate(451.2803,38.5767)">
			<path id="path752" class="st2" d="M151.1-12.9h-7v-10.2h6.8v1.1h-5.3v3.3h4.8v1.1h-4.8v3.7h5.5V-12.9z"/>
		</g>
		<g id="g754" transform="translate(457.2119,43.4087)">
			<path id="path756" class="st2" d="M152.7-23.9v-1.9c0-0.3-0.1-0.5-0.2-0.7c-0.1-0.2-0.4-0.3-0.6-0.4c-0.3-0.1-0.5-0.1-0.7-0.1
				c-0.2,0-0.4,0-0.7,0h-1.7v4.6h1.7c0.6,0,1.1-0.1,1.5-0.3C152.5-22.9,152.7-23.3,152.7-23.9 M154.2-25.9v2.1c0,0.9-0.3,1.5-1,1.8
				c-0.7,0.4-1.6,0.5-2.9,0.5h-1.5v3.7h-1.5v-10.2h3.3c0.4,0,0.8,0,1.1,0c0.3,0,0.6,0.1,1,0.1c0.3,0.1,0.6,0.2,0.8,0.3
				c0.2,0.1,0.4,0.3,0.5,0.6C154.2-26.6,154.2-26.3,154.2-25.9"/>
		</g>
		<g id="g758" transform="translate(463.416,41.8394)">
			<path id="path760" class="st2" d="M154.4-20.3l-1.7-4.6h-0.1l-1.7,4.6H154.4z M157.5-16.2h-1.6l-1.2-3.1h-4.4l-1.1,3.1h-1.5
				l4-10.2h1.8L157.5-16.2z"/>
		</g>
		<g id="g762" transform="translate(471.5352,43.792)">
			<path id="path764" class="st2" d="M156.6-24.8v-1.4c0-0.8-0.7-1.1-2-1.1h-2.1v3.8h2c0.7,0,1.3-0.1,1.6-0.3
				C156.4-23.9,156.6-24.3,156.6-24.8 M158.7-18.1h-1.9l-2.9-4.3h-1.5v4.3H151v-10.2h3.6c1.3,0,2.2,0.1,2.7,0.4
				c0.6,0.3,0.8,0.8,0.8,1.6v1.8c0,0.6-0.3,1.1-0.8,1.4c-0.5,0.3-1.1,0.5-1.9,0.5L158.7-18.1z"/>
		</g>
		<g id="g766" transform="translate(480.5566,45.7573)">
			<path id="path768" class="st2" d="M159-29.2h-3.4v9.1H154v-9.1h-3.5v-1.1h8.4V-29.2z"/>
		</g>
		<g id="g770" transform="translate(490.4561,38.5767)">
			<path id="path772" class="st2" d="M161.7-12.9h-1.3v-8.6h-0.1l-3.3,8.6h-1.4l-3.4-8.6h-0.1v8.6h-1.4v-10.2h2.3l3.3,8.5l0,0
				l3.1-8.5h2.2V-12.9z"/>
		</g>
		<g id="g774" transform="translate(498.0439,38.5767)">
			<path id="path776" class="st2" d="M163.7-12.9h-7v-10.2h6.8v1.1h-5.3v3.3h4.8v1.1h-4.8v3.7h5.5V-12.9z"/>
		</g>
		<g id="g778" transform="translate(506.5586,38.5767)">
			<path id="path780" class="st2" d="M166-12.9h-1.8l-5.5-8.5v8.5h-1.3v-10.2h1.8l5.5,8.4v-8.4h1.3V-12.9z"/>
		</g>
		<g id="g782" transform="translate(514.5293,45.7573)">
			<path id="path784" class="st2" d="M168.1-29.2h-3.4v9.1h-1.5v-9.1h-3.5v-1.1h8.4V-29.2z"/>
		</g>
		<g id="g786" transform="translate(524.083,40.6406)">
			<path id="path788" class="st2" d="M170.7-17.6v-4.8c0-1.3-0.9-1.9-2.8-1.9c-0.4,0-0.7,0-1.1,0.1c-0.3,0-0.6,0.1-0.9,0.3
				c-0.3,0.1-0.5,0.3-0.7,0.6c-0.2,0.3-0.2,0.6-0.2,1v4.8c0,1.2,0.9,1.8,2.8,1.8C169.8-15.9,170.7-16.4,170.7-17.6 M172.2-22.4v4.8
				c0,0.6-0.1,1-0.4,1.4c-0.3,0.4-0.6,0.7-1.1,0.9c-0.5,0.2-0.9,0.3-1.4,0.4c-0.4,0.1-0.9,0.1-1.5,0.1c-2.8,0-4.3-0.9-4.3-2.8v-4.8
				c0-1.9,1.4-2.9,4.3-2.9C170.8-25.3,172.2-24.4,172.2-22.4"/>
		</g>
		<g id="g790" transform="translate(532.6094,45.7573)">
			<path id="path792" class="st2" d="M173-29.2h-5.5v3.3h5v1.1h-5v4.7H166v-10.2h7V-29.2z"/>
		</g>
		<g id="g794" transform="translate(441.2539,13.6211)">
			<path id="path796" class="st0" d="M148.4,43.7h2.9v-4.5h0.6v4.5h3.5v0.6H152v7.5h-0.6v-7.5h-2.9V43.7z M145.1,39.2
				c0.5,0.5,0.9,1.1,1.2,1.7l-0.5,0.4c-0.3-0.6-0.7-1.2-1.2-1.8L145.1,39.2z M144.4,50.1h2.8v-2.4h-2.8V50.1z M147.8,47.1v4.3h-0.6
				v-0.8h-2.8v0.9h-0.6v-4.4H147.8z M143.6,45.2h4.3v0.5h-4.3V45.2z M143.6,43.3h4.3v0.5h-4.3V43.3z M143,41.5h5.6V42H143V41.5z"/>
		</g>
		<g id="g798" transform="translate(438.4082,16.8848)">
			<path id="path800" class="st0" d="M147.7,36.3c0.4,0.5,0.8,1.1,1,1.6l0.3-0.2c-0.3-0.6-0.7-1.1-1.1-1.6L147.7,36.3z M146,38.6
				h5.3v-0.3H146V38.6z M151.5,38.8h-5.8v-0.8h2.8c-0.3-0.6-0.7-1.2-1.1-1.7l-0.1-0.1l0.7-0.4l0.1,0.1c0.5,0.5,0.9,1.1,1.2,1.8
				l0,0.1l-0.5,0.3h2.6V38.8z M146.5,40.5h4v-0.3h-4V40.5z M150.8,40.7h-4.5v-0.8h4.5V40.7z M146.5,42.4h4v-0.3h-4V42.4z
				 M150.8,42.6h-4.5v-0.7h4.5V42.6z M147.4,46.7h2.5v-2.2h-2.5V46.7z M150.2,46.9h-3v-2.7h3V46.9z M146.8,48.1h0.4v-0.9h3V48h0.4
				V44h-3.7V48.1z M147.4,48.4h-0.8v-4.6h4.2v4.5h-0.8v-0.8h-2.5V48.4z M154.3,48.4h0.4v-7.5h3.5v-0.4h-3.5v-4.5h-0.4v4.5h-2.9v0.4
				h2.9V48.4z M155,48.6h-0.9v-7.5h-2.9v-0.8h2.9v-4.5h0.9v4.5h3.5v0.8H155V48.6z"/>
		</g>
		<g id="g802" transform="translate(455.9971,17.1475)">
			<path id="path804" class="st0" d="M152.4,35.7l0.5,0.1c-0.2,0.4-0.4,0.7-0.6,1.1h4.5v0.5H154c0.4,0.3,0.7,0.6,1.1,1l-0.5,0.4
				c-0.4-0.5-0.9-0.9-1.4-1.3H152c-0.4,0.5-0.9,1-1.3,1.3l-0.4-0.4c0.5-0.4,0.9-0.8,1.3-1.3C151.9,36.6,152.2,36.1,152.4,35.7
				 M152.4,45.2v-1.1h-3c0,0.4,0,0.8-0.1,1.1H152.4z M147.3,43.6h7.1v-1h-7.1V43.6z M147.3,42.1h7.1v-1h-7.1V42.1z M147.3,40.5h7.1
				v-1h-7.1V40.5z M146.7,39h8.2v5.2h-2v1.1h4.1v0.5h-4.1v2.4h-0.6v-2.4h-3.3c-0.1,0.2-0.2,0.4-0.3,0.6c-0.3,0.4-0.7,0.8-1.4,1
				c-0.6,0.3-1.5,0.6-2.5,0.8l-0.3-0.5c0.9-0.2,1.7-0.4,2.3-0.7c0.6-0.3,1-0.6,1.3-0.9c0.1-0.1,0.1-0.2,0.2-0.3h-3.7v-0.5h3.8
				c0.1-0.3,0.1-0.7,0.1-1.1h-2V39z M147.2,35.7l0.5,0.1c-0.2,0.4-0.3,0.7-0.6,1.1h3.6v0.5h-2.2c0.3,0.3,0.7,0.6,0.9,1l-0.5,0.4
				c-0.4-0.5-0.8-0.9-1.2-1.3h-1c-0.1,0.1-0.1,0.2-0.2,0.3c-0.5,0.6-1,1.2-1.6,1.7l-0.4-0.4c0.6-0.5,1.1-1,1.6-1.6
				C146.7,36.8,147,36.2,147.2,35.7"/>
		</g>
		<path id="path806" class="st0" d="M603.4,57.6h6.8v-0.8h-6.8V57.6z M610.5,57.8h-7.3v-1.2h7.3V57.8z M603.4,59.1h6.8v-0.8h-6.8
			V59.1z M610.5,59.3h-7.3v-1.2h7.3V59.3z M603.4,60.7h6.8v-0.8h-6.8V60.7z M610.5,60.9h-7.3v-1.3h7.3V60.9z M605.3,62.3h2.9v-0.8
			h-2.8C605.4,61.7,605.4,62,605.3,62.3 M608.5,62.5h-3.4l0-0.1c0.1-0.3,0.1-0.6,0.1-1l0-0.1h3.3L608.5,62.5z M606.4,55.6l0.2,0.2
			c0.4-0.4,0.8-0.8,1.2-1.3l0,0h1.4l0,0c0.5,0.4,1,0.8,1.3,1.3l0.3-0.2c-0.3-0.3-0.6-0.6-1-0.9l-0.3-0.2h3v-0.3h-4.6l0.1-0.2
			c0.2-0.3,0.4-0.6,0.5-0.9l-0.3-0.1c-0.2,0.4-0.5,0.9-0.8,1.3C607.3,54.8,606.9,55.2,606.4,55.6 M606.7,56h3.9l0,0
			c-0.4-0.4-0.8-0.9-1.4-1.3H608C607.6,55.2,607.2,55.6,606.7,56L606.7,56z M600.8,56.2l0.2,0.2c0.5-0.4,1-1,1.5-1.6
			c0.1-0.1,0.1-0.2,0.2-0.3l0-0.1h1.1l0,0c0.4,0.4,0.8,0.8,1.2,1.3l0.3-0.2c-0.3-0.3-0.5-0.6-0.9-0.9l-0.2-0.2h2.4v-0.3H603l0.1-0.2
			c0.2-0.3,0.4-0.6,0.5-0.9l-0.3-0.1c-0.2,0.5-0.6,1.1-1,1.7C601.8,55.2,601.3,55.7,600.8,56.2 M608.5,65.2h0.4v-2.4h4.1v-0.3h-4.1
			v-1.3h2v-4.9h-8v4.9h2l0,0.1c0,0.4,0,0.8-0.1,1.1l0,0.1h-3.8v0.3h3.7l-0.1,0.2c0,0.1-0.1,0.2-0.2,0.3c-0.3,0.4-0.7,0.7-1.3,1
			c-0.6,0.3-1.3,0.5-2.1,0.7l0.2,0.3c0.9-0.2,1.7-0.5,2.3-0.8c0.6-0.3,1-0.6,1.3-1c0.1-0.1,0.2-0.3,0.3-0.5l0-0.1h3.5L608.5,65.2z
			 M600.9,65.4l-0.4-0.7l0.2,0c0.9-0.2,1.7-0.4,2.2-0.7c0.6-0.3,1-0.6,1.2-0.9c0,0,0.1-0.1,0.1-0.1h-3.6v-0.8h3.8
			c0.1-0.2,0.1-0.5,0.1-0.8h-2V56h2.5l0,0c-0.3-0.4-0.7-0.9-1.2-1.3h-0.9c-0.1,0.1-0.1,0.2-0.2,0.3c-0.5,0.6-1.1,1.2-1.6,1.7
			l-0.1,0.1l-0.6-0.5l0.1-0.1c0.6-0.5,1.1-1,1.6-1.6c0.5-0.6,0.8-1.2,1-1.7l0-0.1l0.8,0.2l-0.1,0.1c-0.1,0.3-0.3,0.6-0.5,0.9h3.5
			v0.8h-2c0.3,0.3,0.5,0.5,0.7,0.8l0.1,0.1l-0.6,0.5h1.5l-0.6-0.5l0.1-0.1c0.5-0.4,0.9-0.8,1.3-1.3c0.4-0.5,0.7-0.9,0.9-1.4l0-0.1
			l0.8,0.2L609,53c-0.1,0.3-0.3,0.6-0.5,0.9h4.4v0.8h-2.6c0.3,0.3,0.6,0.5,0.8,0.8l0.1,0.1l-0.6,0.5h0.4v5.4h-2v0.8h4.1V63h-4.1v2.4
			h-0.8V63h-3.1c-0.1,0.2-0.2,0.4-0.3,0.5c-0.3,0.4-0.8,0.8-1.4,1.1C602.9,64.9,602,65.2,600.9,65.4L600.9,65.4z"/>
		<g id="g808" transform="translate(470.8125,16.9902)">
			<path id="path810" class="st0" d="M156.4,36.1l0.5,0.2c-0.2,0.5-0.4,1-0.7,1.5c-0.2,0.4-0.5,0.8-0.7,1.1c0.5,0,1-0.1,1.5-0.2
				c0.2-0.4,0.4-0.8,0.6-1.3l0.5,0.2c-0.3,0.7-0.6,1.4-1.1,2.1c-0.4,0.6-0.7,1.1-1.2,1.6c0.7,0,1.2-0.1,1.7-0.3
				c-0.1-0.3-0.3-0.5-0.5-0.7l0.4-0.3c0.5,0.6,0.9,1.4,1.2,2.1l-0.4,0.3c-0.1-0.3-0.3-0.7-0.4-1c-0.8,0.2-1.8,0.3-2.9,0.4l-0.1-0.5
				h0.4c0.5-0.6,0.9-1.2,1.3-1.8c0.1-0.1,0.2-0.3,0.2-0.4c-0.7,0.1-1.4,0.2-2.1,0.2l-0.2-0.5c0.1,0,0.3,0,0.4,0
				c0.3-0.4,0.6-0.9,0.9-1.3C156,37.1,156.2,36.6,156.4,36.1 M151.9,36.1l0.5,0.2c-0.2,0.5-0.4,1-0.7,1.5c-0.2,0.4-0.4,0.8-0.7,1.1
				c0.5,0,0.9-0.1,1.4-0.2c0.2-0.4,0.4-0.8,0.6-1.2l0.5,0.2c-0.3,0.7-0.7,1.3-1.1,2.1c-0.4,0.6-0.8,1.1-1.2,1.6
				c0.6,0,1.2-0.1,1.7-0.3c-0.2-0.3-0.3-0.5-0.5-0.7l0.5-0.2c0.4,0.6,0.8,1.3,1,2l-0.5,0.2c-0.1-0.3-0.2-0.5-0.3-0.7
				c-0.7,0.2-1.6,0.3-2.7,0.4l-0.1-0.5h0.3c0.5-0.6,1-1.2,1.4-1.8c0.1-0.2,0.2-0.3,0.3-0.4c-0.6,0.1-1.3,0.2-2,0.3L150,39
				c0.1,0,0.2,0,0.4,0c0.3-0.4,0.6-0.9,0.8-1.3C151.5,37.2,151.7,36.6,151.9,36.1 M149.6,43.2h1.9c0.1-0.3,0.1-0.6,0.1-0.9h0.6
				c0,0.3-0.1,0.6-0.1,0.9h2.2c0-0.1,0-0.1-0.1-0.2c-0.5-1.7-0.7-4.1-0.7-7.2h0.6c0,3.1,0.2,5.3,0.6,6.9c0,0.2,0.1,0.3,0.1,0.5h1.9
				c-0.3-0.3-0.6-0.6-0.9-0.9l0.4-0.3c0.4,0.4,0.8,0.8,1.2,1.2h1.1v0.5h-3.5c0.2,0.6,0.4,1.2,0.7,1.7c0.4-0.4,0.8-0.9,1.2-1.4
				l0.5,0.3c-0.4,0.6-0.9,1.2-1.4,1.7c0.1,0.2,0.2,0.3,0.3,0.4c0.6,0.8,1,1.3,1.3,1.3c0.1,0,0.2-0.1,0.3-0.2
				c0.1-0.2,0.2-0.7,0.2-1.4l0.6,0.2c-0.1,0.8-0.2,1.4-0.4,1.7c-0.2,0.2-0.4,0.3-0.6,0.3c-0.5,0-1-0.5-1.7-1.4
				c-0.1-0.2-0.2-0.3-0.3-0.5c-0.2,0.2-0.3,0.3-0.5,0.4c-0.8,0.6-1.9,1.1-3.2,1.5l-0.3-0.5c1.3-0.4,2.3-0.9,3.1-1.4
				c0.2-0.1,0.4-0.3,0.6-0.5c-0.3-0.6-0.6-1.3-0.8-2.1H152c-0.1,0.3-0.1,0.5-0.2,0.8c0.8,0.5,1.4,1,2,1.5l-0.3,0.4
				c-0.6-0.5-1.2-0.9-1.8-1.3c-0.2,0.7-0.5,1.4-0.9,1.9c-0.4,0.6-0.8,1-1.3,1.4l-0.3-0.5c0.4-0.3,0.8-0.7,1.1-1.3
				c0.3-0.5,0.6-1.2,0.8-1.9c0.1-0.3,0.1-0.6,0.2-0.9h-1.9V43.2z M149.2,40.3c0.4,0.6,0.7,1.3,1,2.1l-0.5,0.4
				c-0.2-0.7-0.5-1.5-0.9-2.1L149.2,40.3z M146.3,38.6h1.8v-2.7h0.6v2.7h1.3v0.5h-1.3v9.3H148v-7.3c-0.1,0.6-0.3,1.2-0.5,1.7
				c-0.2,0.8-0.6,1.6-1,2.4l-0.5-0.4c0.4-0.8,0.8-1.7,1.2-2.8c0.3-0.9,0.5-1.9,0.7-2.9h-1.7V38.6z"/>
		</g>
		<g id="g812" transform="translate(469.416,12.8711)">
			<path id="path814" class="st0" d="M156,45.4h0.5c0.5-0.6,0.9-1.2,1.2-1.7c0-0.1,0.1-0.1,0.1-0.1c-0.6,0.1-1.2,0.2-1.8,0.2l-0.1,0
				l-0.1-0.3C155.8,44.1,155.9,44.8,156,45.4 M153.5,44.5c-0.2,0.3-0.5,0.6-0.7,0.9c0.4,0,0.8-0.1,1.2-0.2c-0.1-0.2-0.3-0.4-0.4-0.6
				L153.5,44.5z M150.6,44.3l0.1,0.1c0.3,0.5,0.6,1.1,0.8,1.7l-0.1-0.6h0.4c0.5-0.6,0.9-1.2,1.3-1.7c0-0.1,0.1-0.1,0.1-0.2
				c-0.6,0.1-1.2,0.2-1.7,0.2l-0.1,0l-0.1-0.4h-1.2v1.3L150.6,44.3z M154.5,45.6L154.5,45.6c0.1,0.3,0.2,0.5,0.3,0.7l0.3-0.1
				c-0.2-0.6-0.5-1.3-0.9-1.8l-0.3,0.1c0.1,0.2,0.3,0.4,0.4,0.6l0.1,0.1l-0.1,0c-0.5,0.1-1.1,0.2-1.7,0.3l-0.3,0l0.2-0.2
				c0.4-0.4,0.8-1,1.2-1.6c0.4-0.7,0.8-1.3,1.1-1.9l-0.3-0.1c-0.2,0.4-0.3,0.7-0.5,1.1l0,0l-0.1,0c-0.4,0.1-0.9,0.2-1.4,0.2l-0.3,0
				l0.2-0.2c0.2-0.3,0.5-0.7,0.7-1.1c0.3-0.5,0.5-1,0.7-1.4l-0.3-0.1c-0.2,0.5-0.4,1-0.7,1.5c-0.3,0.5-0.5,0.9-0.8,1.3l0,0l-0.3,0
				l0.1,0.2c0.6,0,1.3-0.1,1.9-0.2l0.3-0.1l-0.2,0.2c-0.1,0.1-0.2,0.3-0.3,0.4c-0.4,0.6-0.9,1.2-1.4,1.8l0,0h-0.3l0.1,0.3
				C152.8,46,153.7,45.9,154.5,45.6L154.5,45.6z M159.2,45.5L159.2,45.5c0.2,0.3,0.3,0.6,0.4,0.9l0.2-0.1c-0.3-0.7-0.6-1.3-1.1-1.9
				l-0.2,0.1c0.1,0.2,0.3,0.4,0.4,0.6l0.1,0.1l-0.1,0c-0.5,0.1-1.1,0.2-1.8,0.3l-0.3,0l0.2-0.2c0.4-0.5,0.8-1,1.1-1.6
				c0.4-0.7,0.8-1.3,1-2l-0.3-0.1c-0.2,0.4-0.3,0.8-0.6,1.2l0,0.1l-0.1,0c-0.5,0.1-1,0.1-1.5,0.2l-0.3,0l0.2-0.2
				c0.3-0.3,0.5-0.7,0.7-1.1c0.3-0.5,0.5-1,0.7-1.4l-0.3-0.1c-0.2,0.5-0.4,1-0.7,1.5c-0.3,0.5-0.5,0.9-0.9,1.3l0,0l0,0
				c-0.1,0-0.2,0-0.2,0l0.1,0.3c0.7,0,1.3-0.1,2-0.2l0.2,0l-0.1,0.2c-0.1,0.1-0.1,0.2-0.2,0.4c-0.4,0.6-0.8,1.2-1.3,1.8l0,0h-0.3
				l0.1,0.3C157.4,45.9,158.4,45.8,159.2,45.5L159.2,45.5z M150.3,44.8c0.3,0.6,0.6,1.2,0.8,1.9l0.3-0.2c-0.2-0.7-0.5-1.3-0.9-1.9
				L150.3,44.8z M156.4,47.2h1.5c-0.2-0.2-0.5-0.5-0.7-0.7l-0.1-0.1l0.4-0.3c-0.4,0-0.8,0.1-1.3,0.1l-0.1,0l0-0.2
				c0.1,0.3,0.1,0.6,0.2,0.9C156.3,47,156.4,47.1,156.4,47.2 M157,50.2l0.1,0.1c0.1,0.2,0.2,0.4,0.3,0.5c0.7,0.9,1.2,1.4,1.6,1.4
				c0.2,0,0.4-0.1,0.5-0.3c0.2-0.3,0.3-0.8,0.4-1.6l-0.4-0.1c0,0.6-0.1,1-0.2,1.3c-0.1,0.2-0.2,0.3-0.4,0.3c-0.4,0-0.9-0.4-1.4-1.3
				c-0.1-0.1-0.2-0.3-0.3-0.4l0-0.1l0.1-0.1c0.5-0.5,0.9-1,1.3-1.5l-0.3-0.2c-0.3,0.5-0.7,1-1.2,1.4l-0.1,0.1l-0.1-0.1
				c-0.3-0.5-0.5-1.1-0.7-1.8l0-0.1h3.6v-0.3h-1.1l0,0c-0.3-0.4-0.7-0.8-1.1-1.1l-0.2,0.2c0.3,0.3,0.6,0.5,0.8,0.8l0.2,0.2h-2.2
				l0-0.1c0-0.1-0.1-0.3-0.1-0.5c-0.4-1.5-0.6-3.8-0.6-6.8h-0.4c0,3,0.2,5.4,0.7,7l0.1,0.3h-2.5l0-0.1c0-0.2,0.1-0.5,0.1-0.8h-0.4
				c0,0.3-0.1,0.6-0.1,0.8l0,0.1h-1.9v0.3h1.9l0,0.1c-0.1,0.3-0.1,0.6-0.2,0.9c-0.2,0.8-0.5,1.4-0.8,2c-0.3,0.5-0.7,0.9-1.1,1.2
				l0.2,0.3c0.4-0.3,0.8-0.7,1.1-1.3c0.3-0.5,0.6-1.1,0.9-1.9l0-0.1l0.1,0.1c0.6,0.4,1.2,0.8,1.7,1.3l0.2-0.2
				c-0.5-0.5-1.1-0.9-1.9-1.4l-0.1,0l0-0.1c0.1-0.2,0.1-0.5,0.2-0.8l0-0.1h2.6l0,0.1c0.2,0.8,0.5,1.5,0.8,2.1l0,0.1l-0.1,0.1
				c-0.2,0.2-0.4,0.3-0.6,0.5c-0.8,0.5-1.7,1-3,1.4l0.1,0.3c1.3-0.4,2.3-0.9,3.1-1.5c0.2-0.1,0.3-0.2,0.5-0.4L157,50.2z M149.5,52.4
				h0.4v-9.3h1.3v-0.3h-1.3v-2.7h-0.4v2.7h-1.8v0.3h1.7l0,0.1c-0.1,1-0.3,1.9-0.7,2.9c-0.4,1.1-0.7,2-1.2,2.7l0.3,0.3
				c0.4-0.7,0.7-1.5,0.9-2.2c0.2-0.5,0.3-1.1,0.5-1.7l0.2-1V52.4z M150.1,52.6h-0.8v-6.5c-0.1,0.3-0.2,0.5-0.2,0.8
				c-0.2,0.8-0.6,1.6-1,2.4l-0.1,0.1l-0.7-0.6l0-0.1c0.4-0.7,0.8-1.7,1.2-2.8c0.3-0.9,0.5-1.8,0.6-2.7h-1.6v-0.8h1.8v-2.7h0.8v2.7
				h1.3v0.5l0.3,0c0.3-0.4,0.6-0.8,0.8-1.3c0.3-0.5,0.5-1,0.7-1.6l0-0.1l0.7,0.3l0,0.1c-0.2,0.5-0.4,1-0.7,1.5
				c-0.2,0.3-0.4,0.6-0.5,0.9c0.4,0,0.7-0.1,1.1-0.2c0.2-0.4,0.4-0.7,0.5-1.1l0-0.1l0.6,0.2c0-0.6,0-1.2,0-1.8v-0.1h0.8l0,0.1
				c0,1.1,0,2.1,0.1,3l0.1,0c0.1,0,0.2,0,0.3,0c0.3-0.4,0.6-0.8,0.8-1.3c0.3-0.5,0.5-1,0.7-1.6l0-0.1l0.7,0.3l0,0.1
				c-0.2,0.5-0.4,1-0.7,1.5c-0.2,0.3-0.4,0.6-0.6,0.9c0.4,0,0.8-0.1,1.2-0.1c0.2-0.4,0.4-0.8,0.6-1.2l0-0.1l0.7,0.3l0,0.1
				c-0.3,0.7-0.6,1.4-1.1,2.1c-0.3,0.5-0.6,1-1,1.4c0.5,0,0.9-0.1,1.3-0.2c-0.1-0.2-0.2-0.4-0.4-0.6l-0.1-0.1l0.6-0.4l0.1,0.1
				c0.5,0.7,0.9,1.4,1.2,2.2l0,0.1l-0.6,0.4l-0.1-0.1c-0.1-0.3-0.2-0.6-0.4-0.9c-0.4,0.1-0.8,0.2-1.3,0.2c0.4,0.3,0.8,0.7,1.1,1.2
				h1.2v0.7h-3.5c0.2,0.5,0.4,1,0.6,1.4c0.4-0.4,0.8-0.8,1.1-1.3l0.1-0.1l0.7,0.4l-0.1,0.1c-0.4,0.6-0.9,1.1-1.4,1.6
				c0.1,0.1,0.2,0.2,0.2,0.4c0.7,1,1,1.2,1.2,1.2c0.1,0,0.1-0.1,0.1-0.1c0.1-0.2,0.2-0.7,0.2-1.3l0-0.1l0.8,0.3l0,0.1
				c-0.1,0.9-0.2,1.4-0.4,1.8c-0.2,0.3-0.4,0.4-0.7,0.4c-0.5,0-1.1-0.5-1.8-1.5c-0.1-0.1-0.2-0.3-0.3-0.4c-0.1,0.1-0.3,0.2-0.4,0.3
				c-0.8,0.6-1.9,1.1-3.2,1.5l-0.1,0l-0.4-0.7l0.1,0c1.3-0.4,2.3-0.9,3-1.4c0.2-0.1,0.4-0.3,0.5-0.4c-0.3-0.6-0.6-1.3-0.8-2h-2.3
				c0,0.2-0.1,0.4-0.1,0.6c0.7,0.5,1.4,1,1.9,1.4l0.1,0.1l-0.4,0.6l-0.1-0.1c-0.5-0.5-1.1-0.9-1.7-1.2c-0.2,0.7-0.5,1.3-0.8,1.8
				c-0.4,0.6-0.8,1.1-1.3,1.4l-0.1,0.1l-0.4-0.7l0.1-0.1c0.4-0.3,0.8-0.7,1.1-1.2c0.3-0.5,0.6-1.2,0.8-1.9c0.1-0.2,0.1-0.5,0.2-0.8
				h-1.8v-0.7h1.9c0-0.3,0.1-0.5,0.1-0.8l0-0.1h0.8l0,0.1c0,0.3-0.1,0.5-0.1,0.8h2l0,0c-0.3-1.3-0.6-2.9-0.7-5
				c-0.3,0.6-0.6,1.2-1.1,1.9c-0.1,0.2-0.2,0.3-0.3,0.4l0.7-0.3l0.1,0.1c0.4,0.6,0.8,1.3,1,2l0,0.1l-0.8,0.2l0-0.1
				c-0.1-0.2-0.1-0.4-0.2-0.6c-0.7,0.2-1.6,0.3-2.7,0.4l-0.1,0c0,0.1,0,0.1,0.1,0.2l0,0.1l-0.7,0.5l0-0.2c-0.2-0.7-0.5-1.3-0.8-1.9
				V52.6z"/>
		</g>
		<g id="g816" transform="translate(480.8643,16.1084)">
			<path id="path818" class="st0" d="M159.1,38.1c1,0.6,1.8,1.3,2.6,2.1l-0.4,0.5c-0.8-0.9-1.7-1.6-2.5-2.2L159.1,38.1z M158.4,41.2
				c1,0.6,1.9,1.3,2.7,2.2l-0.4,0.5c-0.8-0.9-1.7-1.7-2.6-2.3L158.4,41.2z M164.9,44.3l0.1,0.6l-2,0.3v4h-0.6v-3.9l-5.3,0.9l0-0.6
				l5.3-0.9v-8h0.6v7.9L164.9,44.3z M156.2,41.7c0.6,0.7,1.1,1.5,1.4,2.3l-0.5,0.4c-0.3-0.8-0.8-1.6-1.4-2.4L156.2,41.7z M157.3,37
				l0.3,0.5c-0.7,0.2-1.4,0.4-2.1,0.6v2.3h2.3V41h-2.3v8.3h-0.6v-6.7c-0.2,0.6-0.4,1.2-0.7,1.7c-0.3,0.7-0.8,1.4-1.4,2l-0.5-0.4
				c0.6-0.7,1.1-1.5,1.6-2.4c0.4-0.8,0.7-1.6,0.9-2.5h-2.2v-0.5h2.3v-2.1c-0.7,0.2-1.4,0.3-2.1,0.4l-0.2-0.6
				C154.3,37.9,155.9,37.5,157.3,37"/>
		</g>
		<g id="g820" transform="translate(480.7041,15.7881)">
			<path id="path822" class="st0" d="M159.1,38.8c0.8,0.6,1.6,1.3,2.4,2.1l0.3-0.4c-0.7-0.7-1.5-1.4-2.4-2L159.1,38.8z M161.4,41.2
				L161.4,41.2c-0.9-1-1.7-1.7-2.6-2.3l-0.1-0.1l0.5-0.6l0.1,0.1c1,0.6,1.8,1.3,2.6,2.1l0.1,0.1L161.4,41.2z M158.4,41.9
				c0.8,0.6,1.7,1.3,2.4,2.1l0.3-0.3c-0.7-0.8-1.6-1.5-2.5-2L158.4,41.9z M160.8,44.4L160.8,44.4c-0.9-1-1.8-1.8-2.7-2.4L158,42
				l0.5-0.6l0.1,0.1c1,0.6,1.9,1.4,2.7,2.2l0.1,0.1L160.8,44.4z M156,42.4c0.5,0.7,0.9,1.4,1.3,2.2l0.3-0.2
				c-0.4-0.8-0.8-1.5-1.3-2.2L156,42.4z M155.2,49.5h0.4v-8.3h2.3v-0.3h-2.3v-2.5l0.1,0c0.7-0.2,1.3-0.4,1.9-0.6l-0.2-0.3
				c-1.4,0.5-2.9,0.8-4.5,1.1l0.1,0.4c0.7-0.1,1.4-0.2,2-0.4l0.1,0v2.4h-2.3v0.3h2.3l0,0.1c-0.2,0.8-0.5,1.7-0.9,2.5
				c-0.5,0.9-1,1.7-1.5,2.3l0.3,0.3c0.5-0.6,1-1.3,1.3-1.9c0.3-0.5,0.5-1.1,0.7-1.7l0.2-0.7V49.5z M155.8,49.7H155v-6.2
				c-0.1,0.4-0.3,0.7-0.5,1.1c-0.3,0.7-0.8,1.4-1.4,2.1l-0.1,0.1l-0.7-0.6l0.1-0.1c0.6-0.6,1.1-1.4,1.6-2.4c0.4-0.8,0.6-1.5,0.8-2.3
				h-2.2v-0.8h2.3v-1.9c-0.6,0.1-1.3,0.3-2,0.4l-0.1,0l-0.3-0.8l0.1,0c1.7-0.2,3.3-0.6,4.7-1.1l0.1,0l0.4,0.7l-0.1,0
				c-0.6,0.2-1.3,0.4-2,0.6v2h2.3v0.8h-2.3v0.9l0.5-0.4l0.1,0.1c0.6,0.7,1.1,1.5,1.5,2.4l0,0.1l-0.7,0.5l-0.1-0.1
				c-0.3-0.8-0.8-1.6-1.3-2.3V49.7z M162.6,49.5h0.4v-4l2-0.3l0-0.4l-1.9,0.3v-7.9h-0.4v8l-5.3,0.9l0,0.4l5.3-0.9V49.5z M163.2,49.7
				h-0.9v-3.9l-5.3,0.9l-0.1-0.8l5.3-0.9v-8h0.9v7.9l1.9-0.3l0.1,0.8l-2,0.3V49.7z"/>
		</g>
		<g id="g824" transform="translate(494.5459,17.1475)">
			<path id="path826" class="st0" d="M162.8,35.7l0.3,0.4c-0.3,0.4-0.6,0.8-1,1.1c0.3,0.2,0.6,0.5,0.9,0.8l-0.4,0.4
				c-0.3-0.3-0.6-0.6-0.9-0.9c-0.5,0.4-1,0.7-1.6,1l-0.3-0.4c0.6-0.3,1.1-0.6,1.5-0.9c-0.4-0.3-0.8-0.6-1.3-0.9l0.3-0.4
				c0.5,0.3,0.9,0.6,1.4,0.9C162.1,36.5,162.5,36.1,162.8,35.7 M162.6,38.5l0.3,0.4c-0.3,0.4-0.5,0.7-0.9,1c0.4,0.3,0.7,0.6,1,0.9
				l-0.4,0.4c-0.3-0.3-0.7-0.7-1-1c-0.5,0.4-1,0.7-1.6,1l-0.3-0.4c0.5-0.2,1-0.5,1.5-0.9c-0.4-0.3-0.7-0.6-1.1-0.8l0.3-0.4
				c0.4,0.3,0.8,0.5,1.2,0.8C162,39.2,162.3,38.8,162.6,38.5 M159.3,35.9l0.3,0.5c-0.8,0.4-1.6,0.6-2.6,0.8l0,0.7h2.6v0.5h-2.6l0,1
				h2.6v0.5h-2.6l0,1.2h8.5l0.1-1.2h-2.5v-0.5h2.5l0.1-1.1h-2.3V38h2.4l0.1-1.1h-2.4v-0.5h3l-0.3,5h0.9v1.9h-0.6v-1.4h-10.2v1.4
				h-0.6v-1.9h0.9l-0.1-4.6C157.5,36.6,158.4,36.3,159.3,35.9 M157.6,42.8h7.6v0.5c-1,0.6-2.3,1.2-3.7,1.6c0,0.1,0.1,0.2,0.1,0.3
				h5.9v0.5h-5.7c0.1,0.4,0.1,0.8,0.1,1.2c0,0.6-0.1,1-0.3,1.1c-0.2,0.1-0.4,0.2-0.7,0.2c-0.5,0-1-0.1-1.5-0.3l-0.1-0.6
				c0.6,0.2,1,0.3,1.5,0.3c0.2,0,0.3,0,0.4-0.1c0.1-0.1,0.2-0.3,0.2-0.7c0-0.4,0-0.8-0.1-1.2h-6v-0.5h5.8c-0.1-0.3-0.3-0.6-0.5-0.9
				l0.5-0.2c0.1,0.1,0.2,0.2,0.2,0.3c1.1-0.3,2-0.6,2.9-1h-6.6V42.8z"/>
		</g>
		<g id="g828" transform="translate(492.3682,15.2305)">
			<path id="path830" class="st0" d="M162.2,40l0.2,0.2c0.6-0.3,1.1-0.6,1.5-0.9l0.1-0.1l0.1,0.1c0.3,0.2,0.6,0.5,0.9,0.8l0.2-0.3
				c-0.3-0.3-0.5-0.5-0.8-0.7l-0.1-0.1l0.1-0.1c0.3-0.3,0.6-0.7,0.9-1l-0.2-0.2c-0.3,0.4-0.6,0.7-1,1.1l-0.1,0.1l-0.1-0.1
				c-0.4-0.3-0.8-0.6-1.3-0.9l-0.2,0.2c0.4,0.2,0.8,0.5,1.2,0.8l0.1,0.1l-0.1,0.1C163.2,39.5,162.7,39.8,162.2,40 M162.1,42.7
				l0.2,0.2c0.5-0.2,1-0.5,1.5-0.9l0.1-0.1l0.1,0.1c0.3,0.3,0.6,0.6,0.9,0.9l0.2-0.2c-0.3-0.3-0.6-0.5-0.9-0.8l-0.1-0.1l0.1-0.1
				c0.3-0.3,0.5-0.6,0.8-0.9l-0.2-0.2c-0.2,0.3-0.5,0.6-0.9,0.9l-0.1,0.1l-0.1-0.1c-0.4-0.3-0.7-0.5-1.1-0.8l-0.2,0.2
				c0.3,0.2,0.7,0.4,1,0.7l0.1,0.1l-0.1,0.1C163.1,42.1,162.6,42.4,162.1,42.7 M159.4,43.1h2.8l-0.4-0.6l0.1-0.1
				c0.5-0.2,0.9-0.5,1.3-0.8c-0.3-0.3-0.7-0.5-1-0.7l-0.1-0.1l0.5-0.6l0.1,0.1c0.4,0.2,0.8,0.5,1.1,0.8c0.3-0.3,0.6-0.6,0.8-1l0,0
				c-0.3-0.3-0.5-0.5-0.7-0.7c-0.5,0.4-1,0.7-1.6,1l-0.1,0l-0.3-0.5v0.5h-2.6l0,0.8h2.6v0.8h-2.6L159.4,43.1z M162.3,43.1h2.5l0,0
				c-0.3-0.3-0.6-0.6-0.9-0.9C163.4,42.6,162.8,42.9,162.3,43.1L162.3,43.1z M168.8,45h0.3v-1.7h-0.9l0.3-5h-2.7v0.3h2.4l-0.1,1.3
				h-2.4v0.3h2.3l-0.1,1.3h-2.5V42h2.5l-0.1,1.4h-8.7l0-1.5h2.6v-0.3h-2.6l0-1.2h2.6v-0.3h-2.6l0-0.9l0.1,0c0.9-0.2,1.7-0.4,2.4-0.7
				l-0.2-0.3c-0.8,0.4-1.7,0.6-2.7,0.8l0.1,4.6H158V45h0.4v-1.4h10.5V45z M169.4,45.3h-0.8v-1.4h-10v1.4h-0.8v-2.1h0.9l-0.1-4.6
				l0.1,0c1-0.2,1.9-0.4,2.8-0.8l0.1,0l0.5,0.7l-0.1,0.1c-0.8,0.4-1.6,0.6-2.5,0.8l0,0.5h2.6v0.1l0,0c0.5-0.2,1-0.5,1.4-0.8
				c-0.4-0.3-0.8-0.5-1.1-0.8l-0.1-0.1l0.5-0.6l0.1,0.1c0.4,0.3,0.9,0.6,1.3,0.9c0.4-0.3,0.7-0.7,1-1.1l0.1-0.1l0.5,0.5l-0.1,0.1
				c-0.3,0.4-0.6,0.7-0.9,1c0.3,0.2,0.6,0.5,0.8,0.7l0.1,0.1l-0.5,0.5l0.3,0.3l-0.1,0.1c-0.2,0.3-0.5,0.6-0.8,0.9
				c0.3,0.3,0.6,0.5,0.9,0.8l0.1,0.1l-0.5,0.5h2.8l0.1-0.9h-2.5v-0.8h2.5l0-0.8h-2.3v-0.8h2.4l0.1-0.9h-2.4v-0.8h3.2l-0.3,5h0.9
				V45.3z M161.7,49.7c0.5,0.2,1,0.3,1.4,0.3c0.3,0,0.5-0.1,0.6-0.2c0.1-0.1,0.3-0.4,0.3-1c0-0.3,0-0.7-0.1-1.2l0-0.1h5.8v-0.3h-5.9
				l0-0.1c0-0.1-0.1-0.2-0.1-0.3l0-0.1l0.1,0c1.4-0.4,2.6-0.9,3.6-1.5v-0.3h-7.4v0.3h7l-0.5,0.2c-0.8,0.4-1.8,0.8-2.9,1l-0.1,0
				l0-0.1c0-0.1-0.1-0.2-0.2-0.2l-0.3,0.1c0.2,0.2,0.3,0.5,0.4,0.8l0,0.1h-5.8v0.3h5.9l0,0.1c0.1,0.4,0.1,0.8,0.1,1.2
				c0,0.4-0.1,0.7-0.2,0.8c-0.1,0.1-0.2,0.1-0.4,0.1c-0.4,0-0.8-0.1-1.3-0.3L161.7,49.7z M163.1,50.2c-0.5,0-1-0.1-1.6-0.3l-0.1,0
				l-0.1-0.9l0.2,0.1c0.5,0.2,1,0.3,1.4,0.3c0.2,0,0.3,0,0.3-0.1c0,0,0.1-0.1,0.1-0.6c0-0.4,0-0.8-0.1-1.1h-6v-0.7h5.7
				c-0.1-0.3-0.2-0.5-0.4-0.7l-0.1-0.1l0.7-0.3l0.1,0.1c0.1,0.1,0.1,0.2,0.2,0.3c0.8-0.2,1.6-0.5,2.3-0.8h-6.2v-0.8h7.9v0.7l-0.1,0
				c-1,0.6-2.2,1.1-3.6,1.6c0,0,0,0.1,0,0.1h5.9v0.7h-5.7c0.1,0.4,0.1,0.7,0.1,1.1c0,0.6-0.1,1-0.3,1.2
				C163.7,50.1,163.5,50.2,163.1,50.2"/>
		</g>
		<g id="g832" transform="translate(508.2393,10.6514)">
			<path id="path834" class="st0" d="M166.5,50.4c1.3,0.7,2.5,1.6,3.5,2.6l-0.4,0.5c-1.1-1.1-2.3-2-3.5-2.7L166.5,50.4z M168.8,42.2
				l0.4,0.5c-1.3,0.4-2.7,0.7-4.4,0.9c-0.3,0-0.6,0.1-0.9,0.1c-0.7,0.9-1.5,1.7-2.5,2.5c1.3,0,2.6-0.1,3.7-0.1
				c0.8-0.7,1.5-1.3,2.1-2l0.6,0.5c-0.7,0.8-1.8,1.6-3.1,2.6c-1,0.7-2,1.3-3.2,1.8c1.8-0.1,3.8-0.2,6-0.4c-0.5-0.5-1-0.9-1.4-1.2
				l0.4-0.4c1.1,0.8,2.2,1.8,3.1,2.9l-0.4,0.5c-0.4-0.5-0.7-0.9-1.1-1.3c-1.2,0.1-2.5,0.3-3.8,0.3v3.8c0,0.8-0.5,1.2-1.5,1.2
				c-0.5,0-0.9-0.1-1.3-0.2l-0.1-0.7c0.5,0.2,0.9,0.2,1.4,0.2c0.5,0,0.8-0.2,0.8-0.7v-3.6c-1.7,0.1-3.5,0.2-5.3,0.2l-0.1-0.6
				c0.7,0,1.4,0,2.2,0c1.1-0.6,2.2-1.3,3.4-2.1c0.2-0.1,0.3-0.2,0.4-0.3c-1.3,0.1-2.9,0.1-4.7,0.1l-0.1-0.6h1
				c0.9-0.8,1.7-1.6,2.4-2.5c-1.4,0.2-2.8,0.3-4.1,0.3l-0.3-0.6c2.4-0.1,4.4-0.3,6-0.6C166.2,42.9,167.6,42.6,168.8,42.2
				 M161.6,50.3l0.4,0.5c-1,1.1-2.1,2.1-3.4,2.8l-0.3-0.6C159.4,52.4,160.5,51.5,161.6,50.3"/>
		</g>
		<g id="g836" transform="translate(508.0918,10.3369)">
			<path id="path838" class="st0" d="M166.4,51.1c1.1,0.7,2.2,1.6,3.3,2.6l0.3-0.4c-1-0.9-2.1-1.8-3.3-2.5L166.4,51.1z M169.7,54.1
				L169.7,54.1c-1.2-1.2-2.3-2.1-3.5-2.8l-0.1-0.1l0.5-0.6l0.1,0c1.3,0.7,2.5,1.6,3.5,2.6l0.1,0.1L169.7,54.1z M158.6,53.4l0.2,0.4
				c1.2-0.7,2.2-1.6,3.2-2.6l-0.2-0.3C160.7,52,159.7,52.8,158.6,53.4 M158.7,54.1l-0.4-0.8l0.1-0.1c1.1-0.6,2.2-1.5,3.3-2.7
				l0.1-0.1l0.5,0.7l-0.1,0.1c-1,1.1-2.1,2.1-3.4,2.8L158.7,54.1z M162,54.6c0.4,0.1,0.8,0.1,1.2,0.1c0.9,0,1.3-0.3,1.3-1.1v-3.9
				l0.1,0c1.3-0.1,2.6-0.2,3.8-0.3l0.1,0l0,0c0.4,0.4,0.7,0.7,1,1.2l0.3-0.4c-0.9-1-1.9-2-3-2.7l-0.2,0.2c0.4,0.3,0.9,0.7,1.3,1.1
				l0.2,0.2l-0.3,0c-2.2,0.2-4.2,0.3-6,0.4l-0.5,0l0.5-0.2c1.1-0.5,2.2-1.2,3.1-1.8c1.3-0.9,2.3-1.7,3-2.5l-0.5-0.4
				c-0.6,0.7-1.3,1.3-2.1,1.9l0,0l0,0c-1.1,0.1-2.4,0.1-3.7,0.1l-0.3,0l0.2-0.2c0.9-0.8,1.8-1.6,2.4-2.5l0,0l0,0
				c0.3,0,0.6-0.1,0.9-0.1c1.5-0.2,2.9-0.5,4.2-0.9l-0.3-0.3c-1.2,0.4-2.6,0.6-4,0.8c-1.6,0.2-3.5,0.4-5.9,0.5l0.2,0.4
				c1.3-0.1,2.7-0.2,4-0.3l0.3,0l-0.2,0.2c-0.7,0.8-1.5,1.7-2.4,2.5l0,0H160l0.1,0.4c1.8,0,3.3-0.1,4.6-0.1l0.4,0l-0.4,0.2
				c-0.1,0.1-0.3,0.2-0.4,0.3c-1.2,0.8-2.4,1.5-3.5,2.1l-0.1,0c-0.7,0-1.4,0-2.1,0l0.1,0.4c1.8,0,3.6-0.1,5.2-0.2l0.1,0v3.7
				c0,0.4-0.2,0.8-0.9,0.8c-0.4,0-0.8-0.1-1.2-0.2L162,54.6z M163.2,55c-0.5,0-0.9-0.1-1.4-0.2l-0.1,0l-0.1-0.9l0.2,0.1
				c0.4,0.1,0.9,0.2,1.3,0.2c0.6,0,0.7-0.3,0.7-0.6v-3.4c-1.6,0.1-3.4,0.2-5.2,0.2l-0.1,0l-0.1-0.9h0.1c0.7,0,1.4,0,2.2,0
				c1.1-0.6,2.2-1.3,3.4-2.1c0,0,0.1-0.1,0.1-0.1c-1.2,0.1-2.7,0.1-4.3,0.1h-0.1l-0.1-0.8h1.1c0.8-0.7,1.6-1.4,2.2-2.2
				c-1.3,0.1-2.6,0.2-3.9,0.3l-0.1,0l-0.4-0.8l0.2,0c2.4-0.2,4.4-0.3,6-0.6c1.5-0.2,2.8-0.5,4.1-0.9l0.1,0l0.6,0.7l-0.2,0
				c-1.3,0.4-2.8,0.7-4.4,1c-0.3,0-0.6,0.1-0.8,0.1c-0.6,0.8-1.4,1.6-2.2,2.3c1.2,0,2.3-0.1,3.3-0.1c0.8-0.6,1.5-1.3,2.1-2l0.1-0.1
				l0.8,0.7l-0.1,0.1c-0.7,0.8-1.8,1.6-3.1,2.6c-0.8,0.6-1.8,1.1-2.7,1.6c1.6-0.1,3.3-0.2,5.2-0.4c-0.4-0.4-0.8-0.7-1.2-1l-0.1-0.1
				l0.5-0.6l0.1,0.1c1.1,0.8,2.2,1.8,3.1,2.9l0.1,0.1l-0.6,0.7l-0.1-0.1c-0.4-0.4-0.7-0.8-1.1-1.2c-1.2,0.1-2.4,0.2-3.7,0.3v3.7
				C164.8,54.3,164.5,55,163.2,55"/>
		</g>
	</g>
</g>
<g>
	<g>
		<path class="st3" d="M191.9,31c-4.2-0.8-7.3-2.6-8.4-3.5h4h4c0.3,0,0.1-0.4,0.1-0.4s-1.9-1.7-2.2-1.8c-0.4-0.2-0.5,0-0.5,0
			l-1.4,1.2v0h-5.2v-2.7c3.5-0.3,6.4-0.6,6.8-0.7c-2-1.3-1.5-1.2-3.2-2.3c-1.7,0.7-9.5,2.8-14,3.2l0,0.2c2.2,0.1,5.2-0.1,8-0.2v2.5
			h-9.3v0.9h6.6c-1.6,2.3-4.7,5.2-6.9,5.9l0,0.2c1.5-0.3,2.9-0.8,4.2-1.4v8.2h2.3v-0.7l8.6,0v0.7h2.3v-7.8c1.2,0.6,2.2,0.9,2.3,0.7
			c0.2-0.8,0.1-1.7,1.5-2.1C191.8,31.1,191.8,31.3,191.9,31z M175.4,31.7c2.1-1.2,3.6-2.6,4.5-3.6v4.2h-3.1v-0.6H175.4z M185.4,38.7
			h-8.6v-2.2h8.6V38.7z M185.4,35.5h-8.6v-2.2h8.6V35.5z M185.4,31.7v0.6h-3.1v-4.8h0c0.9,1.9,2.6,3.4,4.1,4.4L185.4,31.7z"/>
		<path class="st3" d="M341.4,37.5c-0.2,0.7-1.3,0.4-1.8,0.5c-0.5,0-1-0.1-1.5,0c-0.1,0.1-0.1,0.1,0,0.2c0.9,0.2,1.8,0.3,2.5,0.9
			c0.3,0.3,0.2,0.9,0.3,1.3c0.9,0,1.6-0.1,2.3-0.3c0.3-0.3,0.6-0.3,0.6-1.2h0v-3.2l8.6,0v0c0.4,0,0.6,0,0.7,0c0.3,0,0.1-0.4,0.1-0.4
			s-1.9-1.7-2.2-1.8c-0.4-0.2-0.5,0-0.5,0l-1.4,1.2l0,0h-5.3v-0.8c1.6-0.4,4.7-1.5,4.7-1.5s-1.9-1.4-2.2-1.7c0,0-0.4,0.3-0.9,0.9
			h-9.1v1h8.2c-0.4,0.4-0.7,0.7-1.2,1.2h-1.8v1h-8.7v0.9h8.7V37.5z"/>
		<path class="st3" d="M345.3,25.9c0,0-1.6-0.7-1.8-0.8c-0.3-0.1-0.2,0-0.2,0.1c-0.1,0.3-0.4,0.6-0.6,0.9c-0.5-0.2-1-0.4-1.7-0.4
			c0,0-0.1,0.1,0,0.1c0,0,0.5,0.4,1,1.1c-1.1,1-2.4,1.8-2.4,1.8c-0.5,0.5,1.4-0.2,3.1-1c0.3,0.4,0.6,0.8,0.9,1.2
			c0.6,0.5,1.4-0.7,0.9-1.4c-0.1-0.1-0.2-0.3-0.5-0.5c0.3-0.2,0.5-0.4,0.7-0.5L345.3,25.9z"/>
		<path class="st3" d="M334.2,32.1c0.1-0.3,0.3-0.8,0.2-1.8h15.9c-0.4,0.7-0.8,1.6-1.4,2.6c-0.3,0.5,4.3-2.8,4.3-2.8
			s-1.7-1.3-2.1-1.5c0,0-0.2,0.3-0.4,0.7h-0.2v-8l-2.3-0.3v1h-3v0.7h3v1.8h-3v0.7h3V27h-3v0.7h3v1.5h-11.7v-1.5h1.2v0h2.4
			c0.2,0,0-0.2,0-0.2s-1.1-1-1.3-1.1c-0.2-0.1-0.3,0-0.3,0l-0.7,0.5h-1.3v-1.8h1.2h1.1h1.2c0.2,0,0-0.2,0-0.2s-1.1-1-1.3-1.1
			c-0.2-0.1-0.3,0-0.3,0l-0.7,0.6h-1.3v-1.6c0.9-0.1,2.5-0.3,3.2-0.6l0.6,0.1c0.2,0.1,0.2-0.3,0.2-0.3s-1.8-1-2-1.2
			c-0.2-0.2-0.4,0.2-0.4,0.2l-1.7,1.3v-1.3h-2.3v8.1h-0.2c-0.1-0.4-0.3-0.8-0.5-1.3c-0.1,0-0.1,0-0.1,0c0,0-0.3,1.7-1.5,4
			C331.8,33,333.7,33.1,334.2,32.1z"/>
		<path class="st3" d="M340.1,24.6c-0.5,0.5,1-0.1,2.4-0.9c0.2,0.3,0.4,0.7,0.6,1c0.5,0.6,1.4-0.5,1-1.4c-0.1-0.1-0.2-0.3-0.4-0.4
			c0.3-0.2,0.6-0.4,0.7-0.6l0.6-0.5c0,0-1.5-0.7-1.7-0.7c-0.3-0.1-0.2,0-0.2,0.1c-0.2,0.3-0.4,0.6-0.6,1c-0.4-0.2-0.9-0.4-1.6-0.5
			c0,0-0.1,0.1,0,0.1c0,0,0.4,0.5,1,1.2C341.1,23.9,340.1,24.6,340.1,24.6z"/>
		<path class="st3" d="M222.3,39.4c1-2-1,0-0.5-4.9c-0.1-0.2-0.2-0.1-0.2,0c0,0-0.8,2.2-1.8,3.5c-0.3,0-3.5,0-4.7,0
			c-0.8,0-2,0.1-1.9-0.8v-1.6h4v0.7h2.3l0-4c1.1,1,2,1.3,2.4,1.5c0.7,0.2,0.6,0,0.8-0.3c0.2-0.9,0.3-1.5,1.3-1.8c0,0,0-0.1,0-0.2
			c-2.4-0.5-3.8-0.7-5.5-2.6h1.3h4c0.3,0,0.1-0.4,0.1-0.4s-1.9-1.7-2.2-1.8c-0.4-0.2-0.5,0-0.5,0l-1.4,1.2h-0.5v-3.2
			c0.4,0,3.6,0,4,0c0.3,0,0.1-0.4,0.1-0.4s-1.9-1.7-2.2-1.8c-0.4-0.2-0.5,0-0.5,0l-1.3,1.1v-2.4l-2.3-0.3v2.8h-3.1v-2.8h-2.3v2.8h-3
			c0-0.2-0.1-0.4-0.2-0.6c-0.2-0.2-1.4-1.6-4.6-1.8c0,0.1-0.1,0.1,0,0.1c0,0,1.4,1,3.1,3.5c0.5,0.7,1.1,0.3,1.4-0.3h0.8
			c-0.9,3.1-2.1,5.8-3.7,8.7c-0.1,0.2-0.8,1-1.7,1l-0.8,0.1c-0.1,0-0.2,0.1-0.1,0.3c0.5,0.2,0.3-0.1,0.7,0.1
			c2.1,0.4,1.4,3.9,1.6,5.2c-0.1,0.8,2.4,0.5,2.7-1.5c-0.1-1.6-0.6-2.3-1.2-3.3c0-0.1,0.1-0.3,0.1-0.4c0,0,0.1,0,0.2,0
			c1.6-0.3,3-1.1,4.2-2.1v4.9v0v0.4h0l0,0.1c0.2,1.2,1.2,1.7,1.9,1.7c2.3,0,4.9,0,6.9,0C221.3,40,222,39.9,222.3,39.4z M213.8,24.9
			h3.1v3.2h-3.1V24.9z M213.3,30.4c0.4-0.5,0.7-1,0.9-1.4h3.1c0.3,0.7,0.6,1.2,0.9,1.7l-1-0.1v0.8h-4V30.4z M213.3,32.4h4l0,2.3h-4
			V32.4z M206.8,34.7C206.8,34.7,206.8,34.7,206.8,34.7c0.3-1.3,0.9-3.5,1.5-5.6h2.8C210.7,30.4,209.4,33.4,206.8,34.7z M211.5,28.1
			h-2.9c0.4-1.3,0.7-2.5,0.9-3.2h2V28.1z"/>
		<path class="st3" d="M205.5,29.8c0.8,0.8,1.9-0.9,1.3-2c-0.3-0.4-1.1-1.5-4-1.8c0,0.1-0.1,0.1,0,0.1
			C202.8,26.2,204.1,27.5,205.5,29.8z"/>
		<polygon class="st3" points="273.7,34.9 273.7,36.3 282,36.3 282,37.3 273.7,37.3 273.7,38.7 282,38.7 282,39.7 273.7,39.7 
			273.7,40.4 271.4,40.4 271.4,33.5 273.7,33.5 273.7,34 282,34 282,34.9 		"/>
		<path class="st3" d="M279,22c0.5-0.4,0.8-0.7,0.6-0.7c-1.1-0.2-2.4-0.4-3.9-0.7l-0.1,0.1c-0.8,1.4-3.3,3.9-5.7,5.5h0v0
			c-1.1,0.8-2.2,1.4-3.1,1.7c0,0.3,1.4,0.1,3.1-0.5V33h2.3l0-6.5c0.2-0.1,0.4-0.2,0.6-0.3h6.7v0h2.9c0.2,0.2,0.5,0.3,0.7,0.5v0.8
			h-10.9v1h4.5v3.1h-1.2c0.3-0.3,0.5-1,0.1-1.5c-0.3-0.3-0.9-1-3-1c0,0,0,0.1,0,0.1c0,0,1,0.8,2.2,2.3h-2.6v1l10.9,0V33h2.3v-5.2
			c0.2,0.1,0.3,0.1,0.5,0.1c0.7,0.1,0.9,0.3,1.1-0.2c0-0.7,0.2-1,0.7-1.6c0.2-0.2,0.8-0.6,0.9-0.9l0-0.1
			C285.7,24.6,283.5,25.2,279,22z M279.6,25.2L279.6,25.2l-5.3,0.1c1.1-0.7,3-2,4.2-2.9c0.4,0.6,1.1,1.3,2,2.1L279.6,25.2z
			 M283.2,31.5h-3.8c0.9-0.4,3.3-1.9,3.3-1.9s-1.8-0.7-2.1-0.9c0,0-0.5,1-1.6,2.8h-0.4v-3.1h4.5V31.5z"/>
		<polygon class="st3" points="284.4,40.4 284.4,33.6 282,33.3 282.1,40.4 		"/>
		<path class="st3" d="M311.7,27.8h4.6c0,0,3.7,0,4,0c0.3,0,0.1-0.4,0.1-0.4s-1.9-1.7-2.2-1.8c-0.4-0.2-0.5,0-0.5,0l-1.4,1.1l0,0
			h-5.3V21h-2.6v5.8h-8.3v1h8.3c-0.2,2.9-1.1,9.7-8.9,12.4c0.1,0.1,0.2,0.1,0.4,0.1C310,39.1,311,30.3,311,27.9
			c2.2,10.1,6.4,12.6,8,12.4c0.3,0-0.3-1.8,2.1-2.3l0-0.2C319.2,37.3,313.9,34.6,311.7,27.8z"/>
		<path class="st3" d="M239,25.2c0.8,1.1,2.1-0.8,1.5-1.9c-0.2-0.2-1.4-1.6-4.6-1.8c0,0.1-0.1,0.1,0,0.1
			C235.9,21.7,237.3,22.7,239,25.2z"/>
		<path class="st3" d="M239.9,38.7c-0.1-1.6-0.6-2.3-1.2-3.3c0.1-0.6,0.4-1.7,0.8-3c0.2,0.5,1.3,0.7,1.9,0.3h2
			c0.6,1.9,1.6,3.3,2.7,4.4c-1.6,1.2-3.5,2.2-5.9,2.8c0,0,0,0.2,0,0.1c2.8-0.1,5.1-0.9,7.1-1.9c3.1,2.3,6.7,2.4,6.7,2.1
			c0.1-1.6,1.1-2,1.8-2.4c0.1-0.2-0.1-0.2-0.4-0.2c-1.9,0.1-4-0.2-5.9-0.8c1.8-1.3,3.1-2.7,4-3.8l0.4-0.6c0,0-0.4-0.3-0.9-0.6
			c1.3-0.8,3.1-2,3.1-2s-1.9-1.2-2.3-1.5c0,0-0.2,0.3-0.5,0.9h-11c0-0.3-0.1-0.6-0.2-0.9c-0.1,0-0.1,0-0.1,0c0,0-0.6,1.5-2.1,3.4
			c0.8-2.8,1.8-6.2,2-7.4c0,0,0.1-1.3-0.4,0.3c-0.9,3.1-2.1,5.9-3.8,8.9c-0.1,0.2-0.8,1-1.7,1l-0.8,0.1c-0.1,0-0.2,0.1-0.1,0.3
			c0.5,0.2,0.3-0.1,0.7,0.1c2.1,0.4,1.4,3.9,1.6,5.2C237.2,40.9,239.7,40.6,239.9,38.7z M247.4,35.9c-1.3-0.8-2.5-1.8-3.4-3.2h6.1
			C249.4,33.8,248.5,34.9,247.4,35.9z M242.3,30.3h10.5c-0.2,0.3-0.4,0.7-0.6,1.1c-0.3-0.2-0.6-0.4-0.9-0.5c0,0-0.3,0.5-0.6,0.9
			l-8.7,0C242.2,31.4,242.3,30.9,242.3,30.3z"/>
		<path class="st3" d="M237.6,29.8c0.8,0.8,1.9-0.9,1.3-2c-0.3-0.4-1.1-1.5-4-1.8c0,0.1-0.1,0.1,0,0.1
			C234.9,26.2,236.3,27.5,237.6,29.8z"/>
		<path class="st3" d="M250.3,28.3h2.3v-3h0.6v0h2.7c0.3,0,0-0.3,0-0.3s-1.6-1.3-1.8-1.5c-0.3-0.1-0.4,0-0.4,0l-1,0.8h-0.2v-3
			l-2.3-0.3V22h-8v0.9h8v1.5l-7.5,0v0.9h7.5v1.5h-8v0.9h8V28.3z"/>
		<path class="st3" d="M177.1,50.7h-0.4v0.1c0.4,0.2,0.4,1.1,0.4,1.1v4.3h-4.5v-4.3c0,0,0-0.9,0.4-1.1v-0.1h-2.5v0.1
			c0.4,0.2,0.4,1.1,0.4,1.1l0,10.4c0,0,0,0.9-0.4,1.1v0.1h2.5v-0.1c-0.4-0.2-0.4-1.1-0.4-1.1v-4.7h4.5v4.8c0,0.2,0,0.9-0.4,1v0.1
			h2.5v-0.1c-0.4-0.2-0.4-1.1-0.4-1.1h0l0-10.4c0,0,0-0.9,0.4-1.1v-0.1h-0.4H177.1z"/>
		<path class="st3" d="M208.9,56.6c0.4,0.2,0.4,1.1,0.4,1.1l0,0l0,4.1c-0.3,0.2-1.1,0.6-2.3,0.6c-1.5,0-2.3-0.7-2.3-3.5v-4.3
			c0-2.7,1.9-2.8,2.4-2.8c1-0.1,2.6,0.3,3.2,1.1l0,0v-2c-0.7-0.2-1.9-0.5-3.2-0.4c-2.7,0-4,1.6-4,4.2v4.2c0,3.5,1.3,4.9,4,4.9
			c1.6,0,2.9-0.4,3.9-1v-6.2L208.9,56.6L208.9,56.6z"/>
		<path class="st3" d="M200.5,50.7h-1.4v0h-0.4v0.1c0.3,0.1,0.4,0.8,0.4,1v9.7l-5-10.7h-2.3v0h-0.7v0.1c0.5,0.4,0.6,0.8,0.7,1.4
			v10.3c0,0.3-0.1,0.8-0.4,0.9v0.1h0.4h1.4h0.4v-0.1c-0.3-0.1-0.4-0.7-0.4-0.9V52.4h0c0,0,2,4.5,4.1,8.9c1.2,2.4,3.1,2.3,3.1,2.3
			v-12c0-0.3,0.1-0.8,0.4-0.9v-0.1L200.5,50.7L200.5,50.7z"/>
		<path class="st3" d="M185.3,50.4c-2.7,0-4,1.6-4,4.2v4.2c0,3.5,1.3,4.9,4,4.9c2.7,0,4-1.4,4-4.9v-4.2
			C189.3,52.1,188,50.4,185.3,50.4z M187.7,58.8c0,2.8-0.8,3.5-2.3,3.5c-1.5,0-2.3-0.7-2.3-3.5v-4.3c0-2.7,1.8-2.7,2.3-2.7
			c0.5,0,2.3,0.1,2.3,2.7V58.8z"/>
		<path class="st3" d="M246.2,50.7c0.3,0.1,0.4,0.8,0.4,1v9.7l-5-10.7h-1v0h-1.9v0.1c0.5,0.4,0.6,0.8,0.7,1.4v10.3
			c0,0.3-0.1,0.8-0.4,0.9v0.1h0.4h1.4h0.4v-0.1c-0.3-0.1-0.4-0.7-0.4-0.9V52.4h0c0,0,2,4.5,4.1,8.9c1.2,2.4,3.1,2.3,3.1,2.3v-12
			c0-0.3,0.1-0.8,0.4-0.9v-0.1L246.2,50.7L246.2,50.7z"/>
		<path class="st3" d="M227,62.2l-3.9-5.7l4.6-5.7h-0.4v0h-2.2v0.1c0.7,0.4-0.4,1.3-1.1,2.2l0,0l-2.6,3.3h-0.1v-4.6
			c0-0.2,0.1-0.8,0.4-1v-0.1h-2.5v0.1c0.4,0.2,0.4,0.9,0.4,1v10.5h0c0,0,0,0.9-0.4,1.1v0.1h0.4v0h1.6v0h0.4v-0.1
			c-0.4-0.2-0.4-1.1-0.4-1.1l0-5.5h0.1l4,6c0.3,0.6,0.6,0.6,1.7,0.6h1.2v-0.1C227.8,63,227.4,62.6,227,62.2z"/>
		<path class="st3" d="M256.5,56.6c0.4,0.2,0.4,1.1,0.4,1.1l0,0l0,4.1c-0.3,0.2-1.1,0.6-2.3,0.6c-1.5,0-2.3-0.7-2.3-3.5v-4.3
			c0-2.7,1.9-2.8,2.4-2.8c1-0.1,2.6,0.3,3.2,1.1h0v-2c-0.7-0.2-1.9-0.5-3.2-0.4c-2.7,0-4,1.6-4,4.2v4.2c0,3.5,1.3,4.9,4,4.9
			c1.6,0,2.9-0.4,3.9-1v-6.2L256.5,56.6L256.5,56.6z"/>
		<path class="st3" d="M232.9,50.5c-2.7,0-4,1.6-4,4.2l0,4.2c0,3.5,1.3,4.9,4,4.9c2.7,0,4-1.4,4-4.9l0-4.2
			C236.9,52.1,235.6,50.4,232.9,50.5z M232.9,62.3c-1.5,0-2.3-0.7-2.3-3.5l0-4.3c0-2.7,1.8-2.7,2.3-2.7s2.3,0.1,2.3,2.7l0,4.3
			C235.2,61.6,234.4,62.3,232.9,62.3z"/>
		<path class="st3" d="M310.3,50.7h-1.6v0h-0.4v0.1c0.4,0.2,0.4,1.1,0.4,1.1h0v10.5h0c0,0,0,0.9-0.4,1.1v0.1h2.5v-0.1
			c-0.3-0.1-0.4-0.7-0.4-0.9V51.7c0-0.3,0.1-0.8,0.4-0.9v-0.1L310.3,50.7L310.3,50.7z"/>
		<path class="st3" d="M329.5,50.7h-7.1l0,0c-0.2,0-0.3,0-0.5-0.1h0l-0.5,2.1h0c0.4-0.5,0.8-0.5,1.3-0.6h2.2v10.2h0
			c0,0,0,0.9-0.4,1.1v0.1h2.5v-0.1c-0.3-0.1-0.4-0.7-0.4-1V52.1h2.4c0.3,0,0.6,0.1,0.7,0.6h0l0.4-2.1h0
			C329.9,50.7,329.7,50.7,329.5,50.7z"/>
		<path class="st3" d="M314.2,53.7c0-1.4,1-1.9,2-1.9c0.2,0,0.5,0,0.5,0v0c0.7,0,2.2,0.3,2.7,1l-0.1-2c-0.6-0.2-2-0.4-2.7-0.4l0,0.2
			v-0.2c-0.1,0-0.3,0-0.4,0c-2.1,0-3.7,1.2-3.7,3.5c0,3.8,5.9,3.5,5.9,6.3c0,1.4-1,2-2.2,2l-0.8,0c-1,0-2.1-0.4-2.9-1.2l0.4,2.2
			c0.7,0.3,2.2,0.5,3.1,0.5c2,0.1,4.1-0.9,4.1-3.5C320.2,56.1,314.2,56.5,314.2,53.7z"/>
		<path class="st3" d="M306.2,50.7h-7.3v0h-0.1c-0.2,0-0.3,0-0.5-0.1h0l-0.5,2.1h0c0.4-0.5,0.9-0.5,1.5-0.5v0h2v10.3
			c0,0.2-0.1,0.9-0.4,1v0.1h2.5v-0.1c-0.4-0.2-0.4-0.8-0.4-1V52.1h2.1l0,0c0.4,0,0.9,0,1.1,0.6h0l0.4-2.1h0
			C306.4,50.7,306.3,50.7,306.2,50.7z"/>
		<path class="st3" d="M272.8,56.8L272.8,56.8c1.6-0.5,2.2-1.5,2.2-3.1c0-0.2-0.1-1-0.5-1.7c-0.5-0.7-1.1-1.3-2.8-1.3h-4.1v0h-0.4
			v0.1c0.3,0.1,0.4,0.7,0.4,1v10.7c0,0.2-0.1,0.8-0.4,1v0.1h2.5v0h2c1.4,0,3.8-0.3,3.8-3.6C275.4,58.1,274.7,57,272.8,56.8z
			 M269.2,52.1h2.3c1.4,0,2,0.9,2,1.9c0,1.2-0.6,2-1.9,2h-2.4V52.1z M271.4,62h-2.3v-4.5h1.7c1.7,0,2.9,0.4,2.9,2.4
			C273.8,60.8,273.2,62,271.4,62z"/>
		<path class="st3" d="M293.1,50.7h-3.8v0h-0.6v0.1c0.5,0.3,0.6,1,0.6,1.7v0.6c0,0,0,0.1,0,0.1l0,0v9.2c0,0.2-0.1,0.8-0.4,1v0.1h2.5
			v-0.1c-0.4-0.2-0.4-1.1-0.4-1.1v-4.5h2.1c1.3,0,3.6-0.6,3.6-3.5C296.7,51.3,294.8,50.7,293.1,50.7z M292.8,56.4H291v-4.3h2.2
			c0.4,0,1.8,0.2,1.8,2.1C295,56.2,293.4,56.4,292.8,56.4z"/>
		<path class="st3" d="M286.2,60.9C286.2,60.9,286.2,60.9,286.2,60.9l-3.3-10.2h-2.1l0,0h-0.6v0.1c0.4,0.2,0.4,0.5,0.3,0.9l-0.1,0.4
			c0,0.1-0.1,0.3-0.1,0.4l0,0l-3.1,9.6c-0.2,0.5-0.5,1-0.9,1.3v0.1h2.8v-0.1c-0.4-0.2-0.5-0.4-0.4-0.7l1-3.4h4.3l1,3.3
			c0.1,0.4,0,0.5-0.4,0.8v0.1h2.9v-0.1c-0.4-0.3-0.7-0.8-0.9-1.3L286.2,60.9z M280.1,57.9l1.7-5.7h0l1.7,5.7H280.1z"/>
		<path class="st3" d="M362.2,50.7h-1.6v0h-0.4v0.1c0.3,0.1,0.4,0.6,0.4,0.9v10.9c0,0.3-0.1,0.7-0.4,0.9v0.1h2.5v-0.1
			c-0.3-0.1-0.4-0.7-0.4-0.9V51.8c0-0.2,0.1-0.9,0.4-1v-0.1L362.2,50.7L362.2,50.7z"/>
		<path class="st3" d="M371.8,50.7L371.8,50.7c0.2,0.1,0.2,0.3,0.2,0.4l-2.9,10.6h0l-2.9-11h-1.8l0,0l-0.3,0v0.1
			c0.3,0.3,0.5,0.7,0.6,1.1l0.3,0.9c0,0.2,0.1,0.3,0.1,0.5l0,0l2.1,7.3c0.7,2.3,1.4,2.8,2.6,3.1l0.9-3.1l2.9-9.8h-1.4L371.8,50.7z"
			/>
		<path class="st3" d="M380.9,62h-0.2c0,0-0.1,0-0.1,0v0h-3.1v-4.4h4c0.2,0,0.5,0.1,0.6,0.4h0v-1.9h0c-0.2,0.1-0.4,0.1-0.6,0.1h-0.7
			v0h-3.3v-4.1h4.2c0.2,0,0.4,0.1,0.7,0.5h0l0-2h0c-0.1,0.1-0.2,0.1-0.3,0.1h-0.3c0,0,0,0,0,0h-5.9v0h-0.4v0.1
			c0.3,0.1,0.4,0.7,0.4,0.9v10.8c0,0.3-0.1,0.8-0.4,0.9v0.1h2.5v0h4.1l0,0h0.3l0.6-2.3h0C382.2,61.8,381.6,62,380.9,62z"/>
		<path class="st3" d="M405.9,50.7h-1.6v0h-0.4v0.1c0.3,0.1,0.4,0.6,0.4,0.9v10.9c0,0.3-0.1,0.7-0.4,0.9v0.1h2.5v-0.1
			c-0.3-0.1-0.4-0.7-0.4-0.9V51.7c0-0.3,0.1-0.8,0.4-0.9v-0.1L405.9,50.7L405.9,50.7z"/>
		<path class="st3" d="M425.4,50.7L425.4,50.7l-0.9,0v0.1c0.6,0.4,0.5,1,0.3,1.4l-2,4.7l-2-4.8l-0.4-0.9c-0.2-0.4-0.8-0.4-1.2-0.4
			h-1.2c0.6,0.4,0.7,0.8,1.1,1.5l2.8,6.3v3.9c0,0.3-0.1,0.8-0.4,0.9v0.1h0.4v0h1.6v0h0.4v-0.1c-0.3-0.1-0.4-0.6-0.4-0.9v-3.9
			l2.7-6.2h0l0.7-1.6H425.4z"/>
		<path class="st3" d="M416.3,50.7h-7.2l-0.2,0c-0.2,0-0.3-0.1-0.5-0.1h0l-0.5,2.1h0c0.4-0.5,0.9-0.5,1.5-0.5v0h2v10.2h0
			c0,0,0,0.9-0.4,1.1v0.1h2.5v-0.1c-0.3-0.1-0.4-0.7-0.4-0.9V52.1h2.1l0,0c0.4,0,0.9-0.1,1.1,0.6h0l0.1-0.6h0V52l0.3-1.4h0
			C416.6,50.7,416.5,50.7,416.3,50.7z"/>
		<path class="st3" d="M396.2,53.8c0-1.4,1-1.9,2-1.9c0.2,0,0.5,0,0.5,0v0c0.7,0,2.2,0.3,2.7,1l-0.1-2c-0.6-0.2-2-0.4-2.7-0.4l0,0.2
			v-0.2c-0.1,0-0.3,0-0.4,0c-2.1,0-3.7,1.2-3.7,3.5c0,3.8,5.9,3.5,5.9,6.3c0,1.4-1,2-2.2,2l-0.8,0c-1,0-2.1-0.4-2.9-1.2l0.4,2.2
			c0.8,0.3,2.5,0.5,3.3,0.5v0c2-0.1,3.8-1,3.8-3.5C402.1,56.2,396.2,56.6,396.2,53.8z"/>
		<path class="st3" d="M357.6,50.7h-1.4v0h-0.4v0.1c0.3,0.1,0.4,0.8,0.4,1v9.7l-5-10.7h-2.3v0h-0.7v0.1c0.5,0.4,0.6,0.8,0.7,1.4
			v10.3c0,0.3-0.1,0.8-0.4,0.9v0.1h0.4h1.4h0.4v-0.1c-0.3-0.1-0.4-0.6-0.4-0.9V52.4h0c0,0,2,4.5,4.1,8.9c1.2,2.4,3.1,2.3,3.1,2.3
			v-12c0-0.3,0.1-0.8,0.4-0.9v-0.1L357.6,50.7L357.6,50.7z"/>
		<path class="st3" d="M345.9,50.7h-1.6v0h-0.4v0.1c0.3,0.1,0.4,0.6,0.4,0.9v7.2c0,2.8-0.8,3.5-2.4,3.5c-1.5,0-2.4-0.7-2.4-3.5v-7.1
			c0-0.3,0.1-0.8,0.4-1v-0.1h-0.4v0h-1.6v0h-0.4v0.1c0.4,0.2,0.4,1.1,0.4,1.1h0v6.9c0,3.5,1.3,4.9,4,4.9c2.7,0,4-1.4,4-4.9v-6.9h0
			c0,0,0-0.9,0.4-1.1v-0.1L345.9,50.7L345.9,50.7z"/>
		<path class="st3" d="M392.1,62l-2.4-4.4c1.7-0.4,2.6-2,2.6-3.4c0-1.6-1.1-3.4-3.4-3.4l-1.9,0v0h-1.7h-0.3h-0.4v0.1
			c0.4,0.2,0.4,0.8,0.4,1v10.5h0c0,0,0,0.9-0.4,1.1v0.1h2.5v-0.1c-0.4-0.2-0.4-1.1-0.4-1.1h0l0-4.7l1.3,0l2.7,5.1
			c0.3,0.7,1,0.7,1.7,0.7l1.2,0v-0.1C392.8,62.9,392.5,62.7,392.1,62z M386.6,56.2l0-4l2,0c1.5,0,2.1,1.1,2.1,2c0,1-0.6,2-2.1,2
			L386.6,56.2z"/>
	</g>
	<g>
		<path class="st3" d="M137,58.6c0,0-9.2-3.5-20.7-1.8v-32c8.7-2.6,16.2,0.9,16.2,0.9v-5.6c0,0-10.4-4.5-22.1,1.3v6.1
			c0,0,0,36.2,0,36.2c12.8-4.6,25.2,0.5,25.2,0.5c17.7,6.9,27.3,3.3,27.3,3.3v-8.2C163,59.3,154.9,64.4,137,58.6z"/>
		<path class="st3" d="M157.1,56.7V14.2c0,0-12-5.4-24.6,0.1v5.8c6.7-3.5,13.9-3,18.8-2v31.4c-4.2-0.7-10.3-1-16.3,0.9V24
			c1.1-0.4,2.6-0.9,4-1.4c0.9-0.3,3.7-1,3.8,1.9c0,1.4,0,2.1,0,4c0,0.5-0.2,0.9-0.7,1.1c-0.4,0.2-1.7,0.4-1.7,0.4v2.5
			c0,0,0.1,0,1.3-0.2c0.8-0.1,1,0.4,1,1.2c0,1.8,0,5.4,0,5.4s0,0.7-0.4,1.2c-0.4,0.5-2,0.5-2,0.5l0,2.4c0,0,1.9-0.1,2.8-0.5
			c0.3-0.1,1.4-0.6,1.7-1.5c0.4-1.2,0.4-6.2,0.2-8.5c-0.1-1.5-1.5-1.8-1.5-1.8s1.5-0.7,1.5-2.3v-5c0-3.4-3.2-4.5-6.2-3.6
			c-3.1,0.7-6.5,2.2-6.5,2.2v35.1C143.3,50.8,157.1,56.7,157.1,56.7z"/>
		<path class="st3" d="M137,25.1v20.3l0,2.4c0,0,0.7-0.2,2-0.4c2.1-0.4,6-0.7,10.3-0.2v-2h0V19.8c0,0-1.3-0.4-2.5-0.3v25.2
			c-3.1-0.1-5.6,0.1-7.4,0.3V24.3C139.5,24.3,138.1,24.5,137,25.1z"/>
	</g>
</g>
</svg>
